<svg height="512pt" viewBox="0 0 512 512" width="512pt" xmlns="http://www.w3.org/2000/svg" xmlns:xlink="http://www.w3.org/1999/xlink"><linearGradient id="a" gradientUnits="userSpaceOnUse" x1="0" x2="512" y1="256" y2="256"><stop offset="0" stop-color="#00f38d"/><stop offset="1" stop-color="#009eff"/></linearGradient><path d="m512 256c0 141.386719-114.613281 256-256 256s-256-114.613281-256-256 114.613281-256 256-256 256 114.613281 256 256zm0 0" fill="url(#a)"/><g fill="#fff"><path d="m256 140.144531-168.050781 131.195313 18.460937 23.648437 149.589844-116.785156 149.589844 116.785156 18.460937-23.648437zm0 0"/><path d="m110.292969 155.949219c10.683593 0 19.34375-8.660157 19.34375-19.339844 0-10.683594-19.34375-32.238281-19.34375-32.238281s-19.339844 21.554687-19.339844 32.238281c0 10.679687 8.65625 19.339844 19.339844 19.339844zm0 0"/><path d="m160.582031 189.476562c9.257813 0 16.761719-7.578124 16.761719-16.925781 0-9.347656-16.761719-28.207031-16.761719-28.207031s-16.765625 18.859375-16.765625 28.207031c0 9.347657 7.507813 16.925781 16.765625 16.925781zm0 0"/><path d="m216.027344 140.476562c10.683594 0 19.339844-8.660156 19.339844-19.339843 0-10.683594-19.339844-32.238281-19.339844-32.238281s-19.339844 21.554687-19.339844 32.238281c0 10.679687 8.65625 19.339843 19.339844 19.339843zm0 0"/><path d="m161.871094 122.425781c7.121094 0 12.894531-5.773437 12.894531-12.894531s-12.894531-20.632812-12.894531-20.632812-12.894532 13.511718-12.894532 20.632812 5.773438 12.894531 12.894532 12.894531zm0 0"/><path d="m96.753906 213.328125c0 7.121094 5.773438 12.894531 12.894532 12.894531 7.121093 0 12.894531-5.773437 12.894531-12.894531 0-7.117187-12.894531-20.628906-12.894531-20.628906s-12.894532 13.511719-12.894532 20.628906zm0 0"/><path d="m401.707031 155.949219c10.683594 0 19.34375-8.660157 19.34375-19.339844 0-10.683594-19.34375-32.238281-19.34375-32.238281s-19.339843 21.554687-19.339843 32.238281c-.003907 10.679687 8.65625 19.339844 19.339843 19.339844zm0 0"/><path d="m352.707031 189.476562c9.257813 0 16.765625-7.578124 16.765625-16.925781 0-9.347656-16.765625-28.207031-16.765625-28.207031s-16.761719 18.859375-16.761719 28.207031c0 9.347657 7.503907 16.925781 16.761719 16.925781zm0 0"/><path d="m296.617188 140.476562c10.683593 0 19.34375-8.660156 19.34375-19.339843 0-10.683594-19.34375-32.238281-19.34375-32.238281s-19.339844 21.554687-19.339844 32.238281c0 10.679687 8.65625 19.339843 19.339844 19.339843zm0 0"/><path d="m350.773438 122.425781c7.121093 0 12.894531-5.773437 12.894531-12.894531s-12.894531-20.632812-12.894531-20.632812-12.894532 13.511718-12.894532 20.632812 5.773438 12.894531 12.894532 12.894531zm0 0"/><path d="m390.101562 213.328125c0 7.121094 5.773438 12.894531 12.894532 12.894531s12.894531-5.773437 12.894531-12.894531c0-7.117187-12.894531-20.628906-12.894531-20.628906s-12.894532 13.511719-12.894532 20.628906zm0 0"/><path d="m310.15625 260.222656h-108.957031c-22.492188 0-40.789063 18.296875-40.789063 40.789063v79.300781c0 22.492188 18.296875 40.789062 40.789063 40.789062h108.957031c22.492188 0 40.789062-18.296874 40.789062-40.789062v-79.300781c0-22.492188-18.296874-40.789063-40.789062-40.789063zm10.789062 120.089844c0 5.949219-4.839843 10.789062-10.789062 10.789062h-108.957031c-5.949219 0-10.789063-4.839843-10.789063-10.789062v-79.300781c0-5.949219 4.839844-10.789063 10.789063-10.789063h108.957031c5.949219 0 10.789062 4.839844 10.789062 10.789063zm0 0"/><path d="m228.75 311.800781h53.210938v30h-53.210938zm0 0"/></g></svg>