<svg id="Layer_1" enable-background="new 0 0 256 256" height="512" viewBox="0 0 256 256" width="512" xmlns="http://www.w3.org/2000/svg"><path d="m51.495 252c-5.629 0-10.192-4.563-10.192-10.192v-227.616c0-5.629 4.563-10.192 10.192-10.192 5.629 0 10.192 4.563 10.192 10.192v227.616c0 5.629-4.563 10.192-10.192 10.192z" fill="#f4efed"/><path d="m51.495 254c-6.723 0-12.192-5.469-12.192-12.192v-227.616c0-6.723 5.469-12.192 12.192-12.192s12.192 5.469 12.192 12.192v227.616c0 6.723-5.469 12.192-12.192 12.192zm0-248c-4.517 0-8.192 3.675-8.192 8.192v227.616c0 4.517 3.675 8.192 8.192 8.192s8.192-3.675 8.192-8.192v-227.616c0-4.517-3.675-8.192-8.192-8.192z" fill="#690589"/><path d="m49.93 136.47c-1.104 0-2-.896-2-2v-12.94c0-1.104.896-2 2-2s2 .896 2 2v12.939c0 1.105-.896 2.001-2 2.001z" fill="#690589"/><ellipse cx="51.443" cy="29.339" fill="#ff4397" rx="25.339" ry="25.339" transform="matrix(.707 -.707 .707 .707 -5.679 44.969)"/><path d="m51.443 4c-1.097 0-2.175.077-3.235.213 12.466 1.59 22.104 12.229 22.104 25.126 0 12.898-9.639 23.537-22.104 25.126 1.06.135 2.138.213 3.235.213 13.994 0 25.339-11.345 25.339-25.339.001-13.994-11.344-25.339-25.339-25.339z" fill="#e12579"/><path d="m204.608 252c-5.629 0-10.192-4.563-10.192-10.192v-227.616c0-5.629 4.563-10.192 10.192-10.192 5.629 0 10.192 4.563 10.192 10.192v227.616c0 5.629-4.563 10.192-10.192 10.192z" fill="#f4efed"/><path d="m204.608 254c-6.723 0-12.192-5.469-12.192-12.192v-227.616c.001-6.723 5.47-12.192 12.192-12.192s12.191 5.469 12.191 12.192v227.616c.001 6.723-5.468 12.192-12.191 12.192zm0-248c-4.517 0-8.192 3.675-8.192 8.192v227.616c0 4.517 3.675 8.192 8.192 8.192s8.191-3.675 8.191-8.192v-227.616c.001-4.517-3.674-8.192-8.191-8.192z" fill="#690589"/><ellipse cx="204.557" cy="226.661" fill="#7bac51" rx="25.339" ry="25.339" transform="matrix(.707 -.707 .707 .707 -100.36 211.031)"/><path d="m204.556 201.322c-1.097 0-2.175.077-3.235.213 12.466 1.59 22.104 12.229 22.104 25.127s-9.639 23.537-22.104 25.126c1.06.135 2.138.213 3.235.213 13.994 0 25.339-11.345 25.339-25.339.001-13.996-11.344-25.34-25.339-25.34z" fill="#5d8e33"/><path d="m204.556 252c1.097 0 2.175-.077 3.235-.213-12.466-1.59-22.104-12.229-22.104-25.126 0-12.898 9.639-23.537 22.104-25.127-1.06-.135-2.138-.213-3.235-.213-13.994 0-25.339 11.345-25.339 25.339 0 13.995 11.345 25.34 25.339 25.34z" fill="#99ca6f"/><path d="m128.052 252c-5.629 0-10.192-4.563-10.192-10.192v-227.616c0-5.629 4.563-10.192 10.192-10.192 5.629 0 10.192 4.563 10.192 10.192v227.616c-.001 5.629-4.564 10.192-10.192 10.192z" fill="#f4efed"/><path d="m128.052 254c-6.723 0-12.192-5.469-12.192-12.192v-227.616c0-6.723 5.469-12.192 12.192-12.192s12.192 5.469 12.192 12.192v227.616c0 6.723-5.47 12.192-12.192 12.192zm0-248c-4.517 0-8.192 3.675-8.192 8.192v227.616c0 4.517 3.675 8.192 8.192 8.192s8.192-3.675 8.192-8.192v-227.616c0-4.517-3.675-8.192-8.192-8.192z" fill="#690589"/><circle cx="128" cy="126.383" fill="#fcc24c" r="25.339"/><path d="m204.557 254c-15.075 0-27.339-12.264-27.339-27.339s12.264-27.339 27.339-27.339 27.339 12.264 27.339 27.339-12.265 27.339-27.339 27.339zm0-50.678c-12.869 0-23.339 10.47-23.339 23.339s10.47 23.339 23.339 23.339 23.339-10.47 23.339-23.339-10.47-23.339-23.339-23.339z" fill="#690589"/><path d="m128 101.044c-1.097 0-2.175.077-3.235.213 12.466 1.59 22.104 12.229 22.104 25.126s-9.639 23.537-22.104 25.126c1.06.135 2.138.213 3.235.213 13.994 0 25.339-11.345 25.339-25.339s-11.345-25.339-25.339-25.339z" fill="#dea42e"/><path d="m128 151.722c1.097 0 2.175-.077 3.235-.213-12.466-1.59-22.104-12.229-22.104-25.126s9.639-23.537 22.104-25.126c-1.06-.135-2.138-.213-3.235-.213-13.994 0-25.339 11.345-25.339 25.339s11.345 25.339 25.339 25.339z" fill="#fce06a"/><path d="m51.443 54.678c1.097 0 2.175-.077 3.235-.213-12.466-1.59-22.104-12.229-22.104-25.126 0-12.898 9.639-23.537 22.104-25.126-1.06-.136-2.138-.213-3.235-.213-13.994 0-25.339 11.345-25.339 25.339 0 13.995 11.345 25.339 25.339 25.339z" fill="#ff61b5"/><g fill="#690589"><path d="m128 153.722c-15.075 0-27.339-12.264-27.339-27.339s12.264-27.339 27.339-27.339 27.339 12.264 27.339 27.339-12.264 27.339-27.339 27.339zm0-50.679c-12.869 0-23.339 10.47-23.339 23.339s10.47 23.339 23.339 23.339 23.339-10.47 23.339-23.339-10.47-23.339-23.339-23.339z"/><path d="m51.443 56.678c-15.075 0-27.339-12.264-27.339-27.339s12.265-27.339 27.339-27.339c15.075 0 27.339 12.264 27.339 27.339.001 15.075-12.263 27.339-27.339 27.339zm0-50.678c-12.869 0-23.339 10.47-23.339 23.339s10.47 23.339 23.339 23.339 23.339-10.47 23.339-23.339-10.47-23.339-23.339-23.339z"/></g></svg>